<svg xmlns="http://www.w3.org/2000/svg" xmlns:xlink="http://www.w3.org/1999/xlink" version="1.1" data-diagram-type="CLASS" style="width:1090px;height:1256px;background:#FFFFFF;" width="1090px" height="1256px" viewBox="0 0 1090 1256" zoomAndPan="magnify" preserveAspectRatio="none" contentStyleType="text/css"><?plantuml 1.2026.8?><defs/><g font-family="sans-serif" lengthAdjust="spacing"><g class="title" data-source-line="1"><text x="416.768" y="24.966" fill="#000" font-size="14" textLength="250.207" font-weight="700">State Pattern - Bidding และ Payment</text></g><!--class BiddingState--><g class="entity" data-qualified-name="BiddingState" id="ent0001" data-source-line="7"><rect x="807.85" y="842.468" width="264.223" height="110.616" fill="#F1F1F1" style="stroke:#181818;stroke-width:0.5;" rx="2.5" ry="2.5"/><ellipse cx="896.036" cy="865.174" rx="11" ry="11" fill="#B4A7E5" style="stroke:#181818;stroke-width:1;"/><path d="M892.067,871.674 L892.067,869.971 L894.426,869.705 L894.426,861.502 L892.067,861.236 L892.067,859.533 L899.208,859.533 L899.208,861.236 L896.786,861.502 L896.786,869.705 L899.208,869.971 L899.208,871.674 L892.067,871.674 Z " fill="#000"/><text x="937.071" y="860.296" fill="#000" font-size="12" textLength="38.28" font-style="italic">«State»</text><text x="916.536" y="878.778" fill="#000" font-size="14" textLength="79.352" font-style="italic">BiddingState</text><line x1="808.85" y1="887.88" x2="1071.073" y2="887.88" style="stroke:#181818;stroke-width:0.5;"/><text x="813.85" y="906.846" fill="#000" font-size="14" textLength="185.569">+getStatus() : Bidding.Status</text><text x="813.85" y="925.914" fill="#000" font-size="14" textLength="158.591">+acceptsBids() : boolean</text><text x="813.85" y="944.982" fill="#000" font-size="14" textLength="252.223">+canMoveTo(Bidding.Status) : boolean</text></g><!--class ActiveBiddingState--><g class="entity" data-qualified-name="ActiveBiddingState" id="ent0002" data-source-line="12"><rect x="339.62" y="661.998" width="243.377" height="91.548" fill="#F1F1F1" style="stroke:#181818;stroke-width:0.5;" rx="2.5" ry="2.5"/><ellipse cx="395.214" cy="684.704" rx="11" ry="11" fill="#ADD1B2" style="stroke:#181818;stroke-width:1;"/><path d="M394.683,691.626 Q392.933,691.626 391.792,690.891 Q390.667,690.141 390.104,688.798 Q389.558,687.438 389.558,685.641 Q389.558,683.61 390.214,682.157 Q390.87,680.704 392.151,679.923 Q393.433,679.141 395.308,679.141 Q396.198,679.141 396.87,679.329 Q397.542,679.501 398.229,679.845 L397.417,681.86 Q396.792,681.548 396.245,681.423 Q395.714,681.298 395.229,681.298 Q394.058,681.298 393.354,681.829 Q392.651,682.36 392.354,683.313 Q392.058,684.266 392.058,685.532 Q392.058,687.548 392.776,688.516 Q393.495,689.47 395.089,689.47 Q395.683,689.47 396.308,689.313 Q396.933,689.157 397.761,688.782 L397.761,691.001 Q397.026,691.313 396.229,691.47 Q395.448,691.626 394.683,691.626 Z " fill="#000"/><text x="434.958" y="679.826" fill="#000" font-size="12" textLength="85.201" font-style="italic">«ConcreteState»</text><text x="415.714" y="698.308" fill="#000" font-size="14" textLength="123.69">ActiveBiddingState</text><line x1="340.62" y1="707.41" x2="581.997" y2="707.41" style="stroke:#181818;stroke-width:0.5;"/><text x="345.62" y="726.376" fill="#000" font-size="14" textLength="120.26">acceptsBids = true</text><text x="345.62" y="745.444" fill="#000" font-size="14" textLength="231.377">canMoveTo CLOSED or CANCELLED</text></g><!--class ClosedBiddingState--><g class="entity" data-qualified-name="ClosedBiddingState" id="ent0003" data-source-line="16"><rect x="381.06" y="788.998" width="160.492" height="91.548" fill="#F1F1F1" style="stroke:#181818;stroke-width:0.5;" rx="2.5" ry="2.5"/><ellipse cx="396.06" cy="811.704" rx="11" ry="11" fill="#ADD1B2" style="stroke:#181818;stroke-width:1;"/><path d="M395.529,818.626 Q393.779,818.626 392.638,817.891 Q391.513,817.141 390.951,815.798 Q390.404,814.438 390.404,812.641 Q390.404,810.61 391.06,809.157 Q391.716,807.704 392.998,806.923 Q394.279,806.141 396.154,806.141 Q397.044,806.141 397.716,806.329 Q398.388,806.501 399.076,806.845 L398.263,808.86 Q397.638,808.548 397.091,808.423 Q396.56,808.298 396.076,808.298 Q394.904,808.298 394.201,808.829 Q393.498,809.36 393.201,810.313 Q392.904,811.266 392.904,812.532 Q392.904,814.548 393.623,815.516 Q394.341,816.47 395.935,816.47 Q396.529,816.47 397.154,816.313 Q397.779,816.157 398.607,815.782 L398.607,818.001 Q397.873,818.313 397.076,818.47 Q396.294,818.626 395.529,818.626 Z " fill="#000"/><text x="431.705" y="806.826" fill="#000" font-size="12" textLength="85.201" font-style="italic">«ConcreteState»</text><text x="410.06" y="825.308" fill="#000" font-size="14" textLength="128.492">ClosedBiddingState</text><line x1="382.06" y1="834.41" x2="540.552" y2="834.41" style="stroke:#181818;stroke-width:0.5;"/><text x="387.06" y="853.376" fill="#000" font-size="14" textLength="123.76">acceptsBids = false</text><text x="387.06" y="872.444" fill="#000" font-size="14" textLength="112.966">canMoveTo none</text></g><!--class CancelledBiddingState--><g class="entity" data-qualified-name="CancelledBiddingState" id="ent0004" data-source-line="20"><rect x="371.29" y="915.998" width="180.049" height="91.548" fill="#F1F1F1" style="stroke:#181818;stroke-width:0.5;" rx="2.5" ry="2.5"/><ellipse cx="386.29" cy="938.704" rx="11" ry="11" fill="#ADD1B2" style="stroke:#181818;stroke-width:1;"/><path d="M385.759,945.626 Q384.009,945.626 382.868,944.891 Q381.743,944.141 381.181,942.798 Q380.634,941.438 380.634,939.641 Q380.634,937.61 381.29,936.157 Q381.946,934.704 383.228,933.923 Q384.509,933.141 386.384,933.141 Q387.274,933.141 387.946,933.329 Q388.618,933.501 389.306,933.845 L388.493,935.86 Q387.868,935.548 387.321,935.423 Q386.79,935.298 386.306,935.298 Q385.134,935.298 384.431,935.829 Q383.728,936.36 383.431,937.313 Q383.134,938.266 383.134,939.532 Q383.134,941.548 383.853,942.516 Q384.571,943.47 386.165,943.47 Q386.759,943.47 387.384,943.313 Q388.009,943.157 388.837,942.782 L388.837,945.001 Q388.103,945.313 387.306,945.47 Q386.524,945.626 385.759,945.626 Z " fill="#000"/><text x="431.714" y="933.826" fill="#000" font-size="12" textLength="85.201" font-style="italic">«ConcreteState»</text><text x="400.29" y="952.308" fill="#000" font-size="14" textLength="148.049">CancelledBiddingState</text><line x1="372.29" y1="961.41" x2="550.339" y2="961.41" style="stroke:#181818;stroke-width:0.5;"/><text x="377.29" y="980.376" fill="#000" font-size="14" textLength="123.76">acceptsBids = false</text><text x="377.29" y="999.444" fill="#000" font-size="14" textLength="112.966">canMoveTo none</text></g><!--class BiddingStateResolver--><g class="entity" data-qualified-name="BiddingStateResolver" id="ent0005" data-source-line="24"><rect x="315.3" y="1042.468" width="292.013" height="118.616" fill="#F1F1F1" style="stroke:#181818;stroke-width:0.5;" rx="2.5" ry="2.5"/><ellipse cx="386.791" cy="1065.174" rx="11" ry="11" fill="#ADD1B2" style="stroke:#181818;stroke-width:1;"/><path d="M386.259,1072.096 Q384.509,1072.096 383.369,1071.361 Q382.244,1070.611 381.681,1069.268 Q381.134,1067.908 381.134,1066.111 Q381.134,1064.08 381.791,1062.627 Q382.447,1061.174 383.728,1060.393 Q385.009,1059.611 386.884,1059.611 Q387.775,1059.611 388.447,1059.799 Q389.119,1059.971 389.806,1060.315 L388.994,1062.33 Q388.369,1062.018 387.822,1061.893 Q387.291,1061.768 386.806,1061.768 Q385.634,1061.768 384.931,1062.299 Q384.228,1062.83 383.931,1063.783 Q383.634,1064.736 383.634,1066.002 Q383.634,1068.018 384.353,1068.986 Q385.072,1069.94 386.666,1069.94 Q387.259,1069.94 387.884,1069.783 Q388.509,1069.627 389.338,1069.252 L389.338,1071.471 Q388.603,1071.783 387.806,1071.94 Q387.025,1072.096 386.259,1072.096 Z " fill="#000"/><text x="450.604" y="1060.296" fill="#000" font-size="12" textLength="53.904" font-style="italic">«Registry»</text><text x="407.291" y="1078.778" fill="#000" font-size="14" textLength="140.531">BiddingStateResolver</text><line x1="316.3" y1="1087.88" x2="606.313" y2="1087.88" style="stroke:#181818;stroke-width:0.5;"/><text x="321.3" y="1106.846" fill="#000" font-size="14" textLength="114.758">-EnumMap states</text><line x1="316.3" y1="1114.948" x2="606.313" y2="1114.948" style="stroke:#181818;stroke-width:0.5;"/><text x="321.3" y="1133.914" fill="#000" font-size="14" textLength="280.013">+BiddingStateResolver(List&lt;BiddingState>)</text><text x="321.3" y="1152.982" fill="#000" font-size="14" textLength="254.827">+resolve(Bidding.Status) : BiddingState</text></g><!--class PaymentState--><g class="entity" data-qualified-name="PaymentState" id="ent0010" data-source-line="35"><rect x="804.17" y="263.998" width="271.573" height="91.548" fill="#F1F1F1" style="stroke:#181818;stroke-width:0.5;" rx="2.5" ry="2.5"/><ellipse cx="892.846" cy="286.704" rx="11" ry="11" fill="#B4A7E5" style="stroke:#181818;stroke-width:1;"/><path d="M888.877,293.204 L888.877,291.501 L891.236,291.235 L891.236,283.032 L888.877,282.766 L888.877,281.063 L896.018,281.063 L896.018,282.766 L893.596,283.032 L893.596,291.235 L896.018,291.501 L896.018,293.204 L888.877,293.204 Z " fill="#000"/><text x="937.066" y="281.826" fill="#000" font-size="12" textLength="38.28" font-style="italic">«State»</text><text x="913.346" y="300.308" fill="#000" font-size="14" textLength="85.722" font-style="italic">PaymentState</text><line x1="805.17" y1="309.41" x2="1074.743" y2="309.41" style="stroke:#181818;stroke-width:0.5;"/><text x="810.17" y="328.376" fill="#000" font-size="14" textLength="192.919">+getStatus() : Payment.Status</text><text x="810.17" y="347.444" fill="#000" font-size="14" textLength="259.573">+canMoveTo(Payment.Status) : boolean</text></g><!--class AwaitingPaymentState--><g class="entity" data-qualified-name="AwaitingPaymentState" id="ent0011" data-source-line="39"><rect x="370.79" y="47.068" width="181.043" height="45.412" fill="#F1F1F1" style="stroke:#181818;stroke-width:0.5;" rx="2.5" ry="2.5"/><ellipse cx="385.79" cy="69.774" rx="11" ry="11" fill="#ADD1B2" style="stroke:#181818;stroke-width:1;"/><path d="M385.259,76.696 Q383.509,76.696 382.368,75.961 Q381.243,75.211 380.681,73.868 Q380.134,72.508 380.134,70.711 Q380.134,68.68 380.79,67.227 Q381.446,65.774 382.728,64.993 Q384.009,64.211 385.884,64.211 Q386.774,64.211 387.446,64.399 Q388.118,64.571 388.806,64.915 L387.993,66.93 Q387.368,66.618 386.821,66.493 Q386.29,66.368 385.806,66.368 Q384.634,66.368 383.931,66.899 Q383.228,67.43 382.931,68.383 Q382.634,69.336 382.634,70.602 Q382.634,72.618 383.353,73.586 Q384.071,74.54 385.665,74.54 Q386.259,74.54 386.884,74.383 Q387.509,74.227 388.337,73.852 L388.337,76.071 Q387.603,76.383 386.806,76.54 Q386.024,76.696 385.259,76.696 Z " fill="#000"/><text x="431.711" y="64.896" fill="#000" font-size="12" textLength="85.201" font-style="italic">«ConcreteState»</text><text x="399.79" y="83.378" fill="#000" font-size="14" textLength="149.043">AwaitingPaymentState</text></g><!--class PaymentSubmittedState--><g class="entity" data-qualified-name="PaymentSubmittedState" id="ent0012" data-source-line="40"><rect x="365.33" y="127.068" width="191.963" height="45.412" fill="#F1F1F1" style="stroke:#181818;stroke-width:0.5;" rx="2.5" ry="2.5"/><ellipse cx="380.33" cy="149.774" rx="11" ry="11" fill="#ADD1B2" style="stroke:#181818;stroke-width:1;"/><path d="M379.799,156.696 Q378.049,156.696 376.908,155.961 Q375.783,155.211 375.221,153.868 Q374.674,152.508 374.674,150.711 Q374.674,148.68 375.33,147.227 Q375.986,145.774 377.268,144.993 Q378.549,144.211 380.424,144.211 Q381.314,144.211 381.986,144.399 Q382.658,144.571 383.346,144.915 L382.533,146.93 Q381.908,146.618 381.361,146.493 Q380.83,146.368 380.346,146.368 Q379.174,146.368 378.471,146.899 Q377.768,147.43 377.471,148.383 Q377.174,149.336 377.174,150.602 Q377.174,152.618 377.893,153.586 Q378.611,154.54 380.205,154.54 Q380.799,154.54 381.424,154.383 Q382.049,154.227 382.877,153.852 L382.877,156.071 Q382.143,156.383 381.346,156.54 Q380.564,156.696 379.799,156.696 Z " fill="#000"/><text x="431.711" y="144.896" fill="#000" font-size="12" textLength="85.201" font-style="italic">«ConcreteState»</text><text x="394.33" y="163.378" fill="#000" font-size="14" textLength="159.963">PaymentSubmittedState</text></g><!--class PaidPaymentState--><g class="entity" data-qualified-name="PaidPaymentState" id="ent0013" data-source-line="41"><rect x="385.19" y="207.068" width="152.246" height="45.412" fill="#F1F1F1" style="stroke:#181818;stroke-width:0.5;" rx="2.5" ry="2.5"/><ellipse cx="400.19" cy="229.774" rx="11" ry="11" fill="#ADD1B2" style="stroke:#181818;stroke-width:1;"/><path d="M399.659,236.696 Q397.909,236.696 396.768,235.961 Q395.643,235.211 395.081,233.868 Q394.534,232.508 394.534,230.711 Q394.534,228.68 395.19,227.227 Q395.846,225.774 397.128,224.993 Q398.409,224.211 400.284,224.211 Q401.174,224.211 401.846,224.399 Q402.518,224.571 403.206,224.915 L402.393,226.93 Q401.768,226.618 401.221,226.493 Q400.69,226.368 400.206,226.368 Q399.034,226.368 398.331,226.899 Q397.628,227.43 397.331,228.383 Q397.034,229.336 397.034,230.602 Q397.034,232.618 397.753,233.586 Q398.471,234.54 400.065,234.54 Q400.659,234.54 401.284,234.383 Q401.909,234.227 402.737,233.852 L402.737,236.071 Q402.003,236.383 401.206,236.54 Q400.424,236.696 399.659,236.696 Z " fill="#000"/><text x="431.712" y="224.896" fill="#000" font-size="12" textLength="85.201" font-style="italic">«ConcreteState»</text><text x="414.19" y="243.378" fill="#000" font-size="14" textLength="120.246">PaidPaymentState</text></g><!--class CompletedPaymentState--><g class="entity" data-qualified-name="CompletedPaymentState" id="ent0014" data-source-line="42"><rect x="363.42" y="287.068" width="195.785" height="45.412" fill="#F1F1F1" style="stroke:#181818;stroke-width:0.5;" rx="2.5" ry="2.5"/><ellipse cx="378.42" cy="309.774" rx="11" ry="11" fill="#ADD1B2" style="stroke:#181818;stroke-width:1;"/><path d="M377.889,316.696 Q376.139,316.696 374.998,315.961 Q373.873,315.211 373.311,313.868 Q372.764,312.508 372.764,310.711 Q372.764,308.68 373.42,307.227 Q374.076,305.774 375.358,304.993 Q376.639,304.211 378.514,304.211 Q379.404,304.211 380.076,304.399 Q380.748,304.571 381.436,304.915 L380.623,306.93 Q379.998,306.618 379.451,306.493 Q378.92,306.368 378.436,306.368 Q377.264,306.368 376.561,306.899 Q375.858,307.43 375.561,308.383 Q375.264,309.336 375.264,310.602 Q375.264,312.618 375.983,313.586 Q376.701,314.54 378.295,314.54 Q378.889,314.54 379.514,314.383 Q380.139,314.227 380.967,313.852 L380.967,316.071 Q380.233,316.383 379.436,316.54 Q378.654,316.696 377.889,316.696 Z " fill="#000"/><text x="431.712" y="304.896" fill="#000" font-size="12" textLength="85.201" font-style="italic">«ConcreteState»</text><text x="392.42" y="323.378" fill="#000" font-size="14" textLength="163.785">CompletedPaymentState</text></g><!--class ExpiredPaymentState--><g class="entity" data-qualified-name="ExpiredPaymentState" id="ent0015" data-source-line="43"><rect x="374.61" y="367.068" width="173.399" height="45.412" fill="#F1F1F1" style="stroke:#181818;stroke-width:0.5;" rx="2.5" ry="2.5"/><ellipse cx="389.61" cy="389.774" rx="11" ry="11" fill="#ADD1B2" style="stroke:#181818;stroke-width:1;"/><path d="M389.079,396.696 Q387.329,396.696 386.188,395.961 Q385.063,395.211 384.501,393.868 Q383.954,392.508 383.954,390.711 Q383.954,388.68 384.61,387.227 Q385.266,385.774 386.548,384.993 Q387.829,384.211 389.704,384.211 Q390.594,384.211 391.266,384.399 Q391.938,384.571 392.626,384.915 L391.813,386.93 Q391.188,386.618 390.641,386.493 Q390.11,386.368 389.626,386.368 Q388.454,386.368 387.751,386.899 Q387.048,387.43 386.751,388.383 Q386.454,389.336 386.454,390.602 Q386.454,392.618 387.173,393.586 Q387.891,394.54 389.485,394.54 Q390.079,394.54 390.704,394.383 Q391.329,394.227 392.157,393.852 L392.157,396.071 Q391.423,396.383 390.626,396.54 Q389.844,396.696 389.079,396.696 Z " fill="#000"/><text x="431.709" y="384.896" fill="#000" font-size="12" textLength="85.201" font-style="italic">«ConcreteState»</text><text x="403.61" y="403.378" fill="#000" font-size="14" textLength="141.399">ExpiredPaymentState</text></g><!--class CancelledPaymentState--><g class="entity" data-qualified-name="CancelledPaymentState" id="ent0016" data-source-line="44"><rect x="367.61" y="447.068" width="187.399" height="45.412" fill="#F1F1F1" style="stroke:#181818;stroke-width:0.5;" rx="2.5" ry="2.5"/><ellipse cx="382.61" cy="469.774" rx="11" ry="11" fill="#ADD1B2" style="stroke:#181818;stroke-width:1;"/><path d="M382.079,476.696 Q380.329,476.696 379.188,475.961 Q378.063,475.211 377.501,473.868 Q376.954,472.508 376.954,470.711 Q376.954,468.68 377.61,467.227 Q378.266,465.774 379.548,464.993 Q380.829,464.211 382.704,464.211 Q383.594,464.211 384.266,464.399 Q384.938,464.571 385.626,464.915 L384.813,466.93 Q384.188,466.618 383.641,466.493 Q383.11,466.368 382.626,466.368 Q381.454,466.368 380.751,466.899 Q380.048,467.43 379.751,468.383 Q379.454,469.336 379.454,470.602 Q379.454,472.618 380.173,473.586 Q380.891,474.54 382.485,474.54 Q383.079,474.54 383.704,474.383 Q384.329,474.227 385.157,473.852 L385.157,476.071 Q384.423,476.383 383.626,476.54 Q382.844,476.696 382.079,476.696 Z " fill="#000"/><text x="431.709" y="464.896" fill="#000" font-size="12" textLength="85.201" font-style="italic">«ConcreteState»</text><text x="396.61" y="483.378" fill="#000" font-size="14" textLength="155.399">CancelledPaymentState</text></g><!--class PaymentStateResolver--><g class="entity" data-qualified-name="PaymentStateResolver" id="ent0017" data-source-line="45"><rect x="320.55" y="526.998" width="281.527" height="99.548" fill="#F1F1F1" style="stroke:#181818;stroke-width:0.5;" rx="2.5" ry="2.5"/><ellipse cx="383.123" cy="549.704" rx="11" ry="11" fill="#ADD1B2" style="stroke:#181818;stroke-width:1;"/><path d="M382.592,556.626 Q380.842,556.626 379.701,555.891 Q378.576,555.141 378.013,553.798 Q377.467,552.438 377.467,550.641 Q377.467,548.61 378.123,547.157 Q378.779,545.704 380.06,544.923 Q381.342,544.141 383.217,544.141 Q384.107,544.141 384.779,544.329 Q385.451,544.501 386.138,544.845 L385.326,546.86 Q384.701,546.548 384.154,546.423 Q383.623,546.298 383.138,546.298 Q381.967,546.298 381.263,546.829 Q380.56,547.36 380.263,548.313 Q379.967,549.266 379.967,550.532 Q379.967,552.548 380.685,553.516 Q381.404,554.47 382.998,554.47 Q383.592,554.47 384.217,554.313 Q384.842,554.157 385.67,553.782 L385.67,556.001 Q384.935,556.313 384.138,556.47 Q383.357,556.626 382.592,556.626 Z " fill="#000"/><text x="450.611" y="544.826" fill="#000" font-size="12" textLength="53.904" font-style="italic">«Registry»</text><text x="403.623" y="563.308" fill="#000" font-size="14" textLength="147.881">PaymentStateResolver</text><line x1="321.55" y1="572.41" x2="601.077" y2="572.41" style="stroke:#181818;stroke-width:0.5;"/><text x="326.55" y="591.376" fill="#000" font-size="14" textLength="114.758">-EnumMap states</text><line x1="321.55" y1="599.478" x2="601.077" y2="599.478" style="stroke:#181818;stroke-width:0.5;"/><text x="326.55" y="618.444" fill="#000" font-size="14" textLength="269.527">+resolve(Payment.Status) : PaymentState</text></g><!--class BiddingServiceImpl--><g class="entity" data-qualified-name="BiddingServiceImpl" id="ent0025" data-source-line="58"><rect x="34.44" y="1018.768" width="159.568" height="32" fill="#F1F1F1" style="stroke:#181818;stroke-width:0.5;" rx="2.5" ry="2.5"/><ellipse cx="49.44" cy="1034.768" rx="11" ry="11" fill="#ADD1B2" style="stroke:#181818;stroke-width:1;"/><path d="M48.909,1041.69 Q47.159,1041.69 46.018,1040.955 Q44.893,1040.205 44.331,1038.862 Q43.784,1037.502 43.784,1035.705 Q43.784,1033.674 44.44,1032.221 Q45.096,1030.768 46.378,1029.987 Q47.659,1029.205 49.534,1029.205 Q50.424,1029.205 51.096,1029.393 Q51.768,1029.565 52.456,1029.909 L51.643,1031.924 Q51.018,1031.612 50.471,1031.487 Q49.94,1031.362 49.456,1031.362 Q48.284,1031.362 47.581,1031.893 Q46.878,1032.424 46.581,1033.377 Q46.284,1034.33 46.284,1035.596 Q46.284,1037.612 47.003,1038.58 Q47.721,1039.534 49.315,1039.534 Q49.909,1039.534 50.534,1039.377 Q51.159,1039.221 51.987,1038.846 L51.987,1041.065 Q51.253,1041.377 50.456,1041.534 Q49.674,1041.69 48.909,1041.69 Z " fill="#000"/><text x="63.44" y="1040.2" fill="#000" font-size="14" textLength="127.568">BiddingServiceImpl</text></g><!--class AdminBiddingServiceImpl--><g class="entity" data-qualified-name="AdminBiddingServiceImpl" id="ent0026" data-source-line="59"><rect x="12.99" y="1085.768" width="202.477" height="32" fill="#F1F1F1" style="stroke:#181818;stroke-width:0.5;" rx="2.5" ry="2.5"/><ellipse cx="27.99" cy="1101.768" rx="11" ry="11" fill="#ADD1B2" style="stroke:#181818;stroke-width:1;"/><path d="M27.459,1108.69 Q25.709,1108.69 24.568,1107.955 Q23.443,1107.205 22.881,1105.862 Q22.334,1104.502 22.334,1102.705 Q22.334,1100.674 22.99,1099.221 Q23.646,1097.768 24.928,1096.987 Q26.209,1096.205 28.084,1096.205 Q28.974,1096.205 29.646,1096.393 Q30.318,1096.565 31.006,1096.909 L30.193,1098.924 Q29.568,1098.612 29.021,1098.487 Q28.49,1098.362 28.006,1098.362 Q26.834,1098.362 26.131,1098.893 Q25.428,1099.424 25.131,1100.377 Q24.834,1101.33 24.834,1102.596 Q24.834,1104.612 25.553,1105.58 Q26.271,1106.534 27.865,1106.534 Q28.459,1106.534 29.084,1106.377 Q29.709,1106.221 30.537,1105.846 L30.537,1108.065 Q29.803,1108.377 29.006,1108.534 Q28.224,1108.69 27.459,1108.69 Z " fill="#000"/><text x="41.99" y="1107.2" fill="#000" font-size="14" textLength="170.477">AdminBiddingServiceImpl</text></g><!--class AdminBidActionServiceImpl--><g class="entity" data-qualified-name="AdminBidActionServiceImpl" id="ent0027" data-source-line="60"><rect x="7" y="1152.768" width="214.447" height="32" fill="#F1F1F1" style="stroke:#181818;stroke-width:0.5;" rx="2.5" ry="2.5"/><ellipse cx="22" cy="1168.768" rx="11" ry="11" fill="#ADD1B2" style="stroke:#181818;stroke-width:1;"/><path d="M21.469,1175.69 Q19.719,1175.69 18.578,1174.955 Q17.453,1174.205 16.891,1172.862 Q16.344,1171.502 16.344,1169.705 Q16.344,1167.674 17,1166.221 Q17.656,1164.768 18.938,1163.987 Q20.219,1163.205 22.094,1163.205 Q22.984,1163.205 23.656,1163.393 Q24.328,1163.565 25.016,1163.909 L24.203,1165.924 Q23.578,1165.612 23.031,1165.487 Q22.5,1165.362 22.016,1165.362 Q20.844,1165.362 20.141,1165.893 Q19.438,1166.424 19.141,1167.377 Q18.844,1168.33 18.844,1169.596 Q18.844,1171.612 19.563,1172.58 Q20.281,1173.534 21.875,1173.534 Q22.469,1173.534 23.094,1173.377 Q23.719,1173.221 24.547,1172.846 L24.547,1175.065 Q23.813,1175.377 23.016,1175.534 Q22.234,1175.69 21.469,1175.69 Z " fill="#000"/><text x="36" y="1174.2" fill="#000" font-size="14" textLength="182.447">AdminBidActionServiceImpl</text></g><!--class PaymentServiceImpl--><g class="entity" data-qualified-name="PaymentServiceImpl" id="ent0028" data-source-line="61"><rect x="30.76" y="527.768" width="166.917" height="32" fill="#F1F1F1" style="stroke:#181818;stroke-width:0.5;" rx="2.5" ry="2.5"/><ellipse cx="45.76" cy="543.768" rx="11" ry="11" fill="#ADD1B2" style="stroke:#181818;stroke-width:1;"/><path d="M45.229,550.69 Q43.479,550.69 42.338,549.955 Q41.213,549.205 40.651,547.862 Q40.104,546.502 40.104,544.705 Q40.104,542.674 40.76,541.221 Q41.416,539.768 42.698,538.987 Q43.979,538.205 45.854,538.205 Q46.744,538.205 47.416,538.393 Q48.088,538.565 48.776,538.909 L47.963,540.924 Q47.338,540.612 46.791,540.487 Q46.26,540.362 45.776,540.362 Q44.604,540.362 43.901,540.893 Q43.198,541.424 42.901,542.377 Q42.604,543.33 42.604,544.596 Q42.604,546.612 43.323,547.58 Q44.041,548.534 45.635,548.534 Q46.229,548.534 46.854,548.377 Q47.479,548.221 48.307,547.846 L48.307,550.065 Q47.573,550.377 46.776,550.534 Q45.994,550.69 45.229,550.69 Z " fill="#000"/><text x="59.76" y="549.2" fill="#000" font-size="14" textLength="134.917">PaymentServiceImpl</text></g><!--class AdminPaymentServiceImpl--><g class="entity" data-qualified-name="AdminPaymentServiceImpl" id="ent0029" data-source-line="62"><rect x="9.31" y="594.768" width="209.827" height="32" fill="#F1F1F1" style="stroke:#181818;stroke-width:0.5;" rx="2.5" ry="2.5"/><ellipse cx="24.31" cy="610.768" rx="11" ry="11" fill="#ADD1B2" style="stroke:#181818;stroke-width:1;"/><path d="M23.779,617.69 Q22.029,617.69 20.888,616.955 Q19.763,616.205 19.201,614.862 Q18.654,613.502 18.654,611.705 Q18.654,609.674 19.31,608.221 Q19.966,606.768 21.248,605.987 Q22.529,605.205 24.404,605.205 Q25.294,605.205 25.966,605.393 Q26.638,605.565 27.326,605.909 L26.513,607.924 Q25.888,607.612 25.341,607.487 Q24.81,607.362 24.326,607.362 Q23.154,607.362 22.451,607.893 Q21.748,608.424 21.451,609.377 Q21.154,610.33 21.154,611.596 Q21.154,613.612 21.873,614.58 Q22.591,615.534 24.185,615.534 Q24.779,615.534 25.404,615.377 Q26.029,615.221 26.857,614.846 L26.857,617.065 Q26.123,617.377 25.326,617.534 Q24.544,617.69 23.779,617.69 Z " fill="#000"/><text x="38.31" y="616.2" fill="#000" font-size="14" textLength="177.827">AdminPaymentServiceImpl</text></g><g class="entity" data-qualified-name="GMN35" id="ent0036" data-source-line="71"><path d="M282.45,1196.068 L282.45,1241.48 A0,0 0 0 0 282.45,1241.48 L640.176,1241.48 A0,0 0 0 0 640.176,1241.48 L640.176,1206.068 L630.176,1196.068 L465.31,1196.068 L461.31,1161.348 L457.31,1196.068 L282.45,1196.068 A0,0 0 0 0 282.45,1196.068" style="stroke:#181818;stroke-width:0.5;" fill="#FEFFDD"/><path d="M630.176,1196.068 L630.176,1206.068 L640.176,1206.068 L630.176,1196.068" style="stroke:#181818;stroke-width:0.5;" fill="#FEFFDD"/><text x="288.45" y="1214.965" fill="#000" font-size="13" textLength="336.726">Service เรียก resolver.resolve(status).canMoveTo(target)</text><text x="288.45" y="1232.671" fill="#000" font-size="13" textLength="258.765">เพิ่มสถานะใหม่ด้วยการเพิ่ม class (Open/Closed)</text></g><!--link ActiveBiddingState to BiddingState--><g class="link" data-entity-1="ent0002" data-entity-2="ent0001" id="lnk6" data-source-line="30" data-link-type="extension"><path d="M583.19,750.278 C602.32,757.288 621.83,764.608 640.17,771.768 C696.55,793.778 741.705,812.463 794.335,834.923" style="stroke:#181818;stroke-width:1;stroke-dasharray:7,7;" fill="none" id="ActiveBiddingState-to-BiddingState" codeLine="30"/><polygon points="810.89,841.988,796.69,829.404,791.979,840.441,810.89,841.988" fill="none" style="stroke:#181818;stroke-width:1;stroke-linejoin:miter;stroke-miterlimit:10;"/></g><!--link ClosedBiddingState to BiddingState--><g class="link" data-entity-1="ent0003" data-entity-2="ent0001" id="lnk7" data-source-line="31" data-link-type="extension"><path d="M541.82,845.278 C614.13,854.838 704.395,866.769 789.565,878.029" style="stroke:#181818;stroke-width:1;stroke-dasharray:7,7;" fill="none" id="ClosedBiddingState-to-BiddingState" codeLine="31"/><polygon points="807.41,880.388,790.352,872.08,788.779,883.977,807.41,880.388" fill="none" style="stroke:#181818;stroke-width:1;stroke-linejoin:miter;stroke-miterlimit:10;"/></g><!--link CancelledBiddingState to BiddingState--><g class="link" data-entity-1="ent0004" data-entity-2="ent0001" id="lnk8" data-source-line="32" data-link-type="extension"><path d="M551.68,949.768 C623.79,940.088 708.43,928.723 789.85,917.793" style="stroke:#181818;stroke-width:1;stroke-dasharray:7,7;" fill="none" id="CancelledBiddingState-to-BiddingState" codeLine="32"/><polygon points="807.69,915.398,789.052,911.846,790.648,923.739,807.69,915.398" fill="none" style="stroke:#181818;stroke-width:1;stroke-linejoin:miter;stroke-miterlimit:10;"/></g><!--reverse link BiddingStateResolver to BiddingState--><g class="link" data-entity-1="ent0005" data-entity-2="ent0001" id="lnk9" data-source-line="33" data-link-type="aggregation"><path d="M612.812,1037.357 C678.202,1009.377 744.62,980.948 808.8,953.478" style="stroke:#181818;stroke-width:1;" fill="none" id="BiddingStateResolver-backto-BiddingState" codeLine="33"/><polygon points="601.78,1042.078,608.87,1043.395,612.812,1037.357,605.723,1036.04,601.78,1042.078" fill="none" style="stroke:#181818;stroke-width:1;stroke-linejoin:miter;stroke-miterlimit:10;"/><text x="671.17" y="965.475" fill="#000" font-size="13" textLength="102.947">collects all beans</text></g><!--link AwaitingPaymentState to PaymentState--><g class="link" data-entity-1="ent0011" data-entity-2="ent0010" id="lnk18" data-source-line="50" data-link-type="extension"><path d="M552.3,83.938 C581,90.048 612.49,98.458 640.17,109.768 C733.35,147.838 813.7,205.982 870.77,252.182" style="stroke:#181818;stroke-width:1;stroke-dasharray:7,7;" fill="none" id="AwaitingPaymentState-to-PaymentState" codeLine="50"/><polygon points="884.76,263.508,874.545,247.519,866.994,256.846,884.76,263.508" fill="none" style="stroke:#181818;stroke-width:1;stroke-linejoin:miter;stroke-miterlimit:10;"/></g><!--link PaymentSubmittedState to PaymentState--><g class="link" data-entity-1="ent0012" data-entity-2="ent0010" id="lnk19" data-source-line="51" data-link-type="extension"><path d="M557.67,168.258 C584.58,174.268 613.73,181.548 640.17,189.768 C706.49,210.398 762.262,232.219 819.142,256.469" style="stroke:#181818;stroke-width:1;stroke-dasharray:7,7;" fill="none" id="PaymentSubmittedState-to-PaymentState" codeLine="51"/><polygon points="835.7,263.528,821.495,250.949,816.789,261.988,835.7,263.528" fill="none" style="stroke:#181818;stroke-width:1;stroke-linejoin:miter;stroke-miterlimit:10;"/></g><!--link PaidPaymentState to PaymentState--><g class="link" data-entity-1="ent0013" data-entity-2="ent0010" id="lnk20" data-source-line="52" data-link-type="extension"><path d="M537.84,242.448 C609.11,254.408 699.828,269.64 786.018,284.1" style="stroke:#181818;stroke-width:1;stroke-dasharray:7,7;" fill="none" id="PaidPaymentState-to-PaymentState" codeLine="52"/><polygon points="803.77,287.078,787.011,278.182,785.025,290.017,803.77,287.078" fill="none" style="stroke:#181818;stroke-width:1;stroke-linejoin:miter;stroke-miterlimit:10;"/></g><!--link CompletedPaymentState to PaymentState--><g class="link" data-entity-1="ent0014" data-entity-2="ent0010" id="lnk21" data-source-line="53" data-link-type="extension"><path d="M559.63,309.768 C630.01,309.768 708.02,309.768 785.84,309.768" style="stroke:#181818;stroke-width:1;stroke-dasharray:7,7;" fill="none" id="CompletedPaymentState-to-PaymentState" codeLine="53"/><polygon points="803.84,309.768,785.84,303.768,785.84,315.768,803.84,309.768" fill="none" style="stroke:#181818;stroke-width:1;stroke-linejoin:miter;stroke-miterlimit:10;"/></g><!--link ExpiredPaymentState to PaymentState--><g class="link" data-entity-1="ent0015" data-entity-2="ent0010" id="lnk22" data-source-line="54" data-link-type="extension"><path d="M548.35,375.328 C619.55,363.378 704.188,349.178 786.278,335.398" style="stroke:#181818;stroke-width:1;stroke-dasharray:7,7;" fill="none" id="ExpiredPaymentState-to-PaymentState" codeLine="54"/><polygon points="804.03,332.418,785.285,329.481,787.272,341.315,804.03,332.418" fill="none" style="stroke:#181818;stroke-width:1;stroke-linejoin:miter;stroke-miterlimit:10;"/></g><!--link CancelledPaymentState to PaymentState--><g class="link" data-entity-1="ent0016" data-entity-2="ent0010" id="lnk23" data-source-line="55" data-link-type="extension"><path d="M555.37,451.798 C582.92,445.688 612.97,438.228 640.17,429.768 C706.49,409.148 762.262,387.327 819.142,363.077" style="stroke:#181818;stroke-width:1;stroke-dasharray:7,7;" fill="none" id="CancelledPaymentState-to-PaymentState" codeLine="55"/><polygon points="835.7,356.018,816.789,357.558,821.495,368.597,835.7,356.018" fill="none" style="stroke:#181818;stroke-width:1;stroke-linejoin:miter;stroke-miterlimit:10;"/></g><!--reverse link PaymentStateResolver to PaymentState--><g class="link" data-entity-1="ent0017" data-entity-2="ent0010" id="lnk24" data-source-line="56" data-link-type="aggregation"><path d="M610.378,522.133 C624.278,516.633 626.97,515.398 640.17,509.768 C700.89,483.898 718.53,481.268 774.17,445.768 C815.61,419.338 858.3,383.838 889.84,355.738" style="stroke:#181818;stroke-width:1;" fill="none" id="PaymentStateResolver-backto-PaymentState" codeLine="56"/><polygon points="599.22,526.548,606.271,528.06,610.378,522.133,603.327,520.621,599.22,526.548" fill="none" style="stroke:#181818;stroke-width:1;stroke-linejoin:miter;stroke-miterlimit:10;"/><text x="671.17" y="441.665" fill="#000" font-size="13" textLength="102.947">collects all beans</text></g><!--link BiddingServiceImpl to BiddingStateResolver--><g class="link" data-entity-1="ent0025" data-entity-2="ent0005" id="lnk30" data-source-line="64" data-link-type="dependency"><path d="M194.39,1050.148 C230.21,1057.098 268.802,1064.585 310.152,1072.615" style="stroke:#181818;stroke-width:1;stroke-dasharray:7,7;" fill="none" id="BiddingServiceImpl-to-BiddingStateResolver" codeLine="64"/><polygon points="315.06,1073.568,306.988,1067.926,310.152,1072.615,305.463,1075.779,315.06,1073.568" fill="#181818" style="stroke:#181818;stroke-width:1;stroke-linejoin:miter;stroke-miterlimit:10;"/></g><!--link AdminBiddingServiceImpl to BiddingStateResolver--><g class="link" data-entity-1="ent0026" data-entity-2="ent0005" id="lnk31" data-source-line="65" data-link-type="dependency"><path d="M215.5,1101.768 C246.54,1101.768 276.4,1101.768 309.86,1101.768" style="stroke:#181818;stroke-width:1;stroke-dasharray:7,7;" fill="none" id="AdminBiddingServiceImpl-to-BiddingStateResolver" codeLine="65"/><polygon points="314.86,1101.768,305.86,1097.768,309.86,1101.768,305.86,1105.768,314.86,1101.768" fill="#181818" style="stroke:#181818;stroke-width:1;stroke-linejoin:miter;stroke-miterlimit:10;"/></g><!--link AdminBidActionServiceImpl to BiddingStateResolver--><g class="link" data-entity-1="ent0027" data-entity-2="ent0005" id="lnk32" data-source-line="66" data-link-type="dependency"><path d="M200.08,1152.298 C234.71,1145.578 270.842,1138.561 309.972,1130.961" style="stroke:#181818;stroke-width:1;stroke-dasharray:7,7;" fill="none" id="AdminBidActionServiceImpl-to-BiddingStateResolver" codeLine="66"/><polygon points="314.88,1130.008,305.282,1127.797,309.972,1130.961,306.808,1135.65,314.88,1130.008" fill="#181818" style="stroke:#181818;stroke-width:1;stroke-linejoin:miter;stroke-miterlimit:10;"/></g><!--link PaymentServiceImpl to PaymentStateResolver--><g class="link" data-entity-1="ent0028" data-entity-2="ent0017" id="lnk33" data-source-line="67" data-link-type="dependency"><path d="M197.88,551.678 C234.57,555.188 273.803,558.932 315.393,562.912" style="stroke:#181818;stroke-width:1;stroke-dasharray:7,7;" fill="none" id="PaymentServiceImpl-to-PaymentStateResolver" codeLine="67"/><polygon points="320.37,563.388,311.792,558.549,315.393,562.912,311.03,566.512,320.37,563.388" fill="#181818" style="stroke:#181818;stroke-width:1;stroke-linejoin:miter;stroke-miterlimit:10;"/></g><!--link AdminPaymentServiceImpl to PaymentStateResolver--><g class="link" data-entity-1="ent0029" data-entity-2="ent0017" id="lnk34" data-source-line="68" data-link-type="dependency"><path d="M219.23,600.528 C250.98,597.398 281.454,594.399 315.194,591.069" style="stroke:#181818;stroke-width:1;stroke-dasharray:7,7;" fill="none" id="AdminPaymentServiceImpl-to-PaymentStateResolver" codeLine="68"/><polygon points="320.17,590.578,310.821,587.481,315.194,591.069,311.606,595.443,320.17,590.578" fill="#181818" style="stroke:#181818;stroke-width:1;stroke-linejoin:miter;stroke-miterlimit:10;"/></g><?plantuml-src hLRTQXD15BwVfpYNAPBeTQc1cEQYa5ffVO79xaaok3kpp9oarX-mUAFt8dWZQ151RqGK9cypZ-BiRhRTpKve2bw5pFUTt_dEsI512S8PSK9umebGI-Z28n77Gix0hIwT_URiBuzTf2Y99JWb80LQpEO4iT0OaL2IcMT2Pbpp5CoSn-eyjvxon60DYH9kp818Yyc2y2XIyaoyG7Z0vY96m3IZ2qWndQ0sZ0dfSvdo2AjaoXmF3ehVVXzUCe1xCwJy_y9qzc2_OlRAenpdKOGP6G-KZ8bI2NAPGn6Nnsg9JrMdQLQdlMP5pZ3mHIvn8v6Xaf56mdf2jNZm44Wlq1zUHuBX-EHiT0XAmt3mU3WQZqU7rp66YJ8Otpb6sUHw4AaatdZbCi8a-V-Ew_vEqQXaYThxFSMPCAGlrYwx8xb8Zta69kSLLn8ox8ozqK4TwU_bN5tYWHkgStrEB713lTwhVfCNQ7605EnOcnTiWEfscthTXqXvPn4Pu4a24w-gXhZNSxM3kDVCchXl5Dp4WWe-vu9yLXlnDcIm9bUanIGLVYN4jx55l9FReKgpn9_knXuzp_nssT5pTMTtAk_Eqgtas6vttMKXnr2x2mqrcE56XtWRBMvJmirjyq9j3NWBDdHx0QqXQDY5Xw2vHr0lHOH7leXAiN4gvAteeFZyjF4gVjWmWB9sA5zlFxZds9RSRZTefRlTf9rZmGrrd6qfQhi1ayhVoqGHgHJKD9m1mDgNVmUySVRAsR_EVdNs4jQ3e7lLH9Xo4detAucuzliht-A5yMTd_xZLEsU_EFl3sO_E_dRsatzPkDLRPt_cvpdwmQtUE_kz35DmhZRCorS4T4uobFVBXRx7KCQGL_GF?></g></svg>