<svg xmlns="http://www.w3.org/2000/svg" xmlns:xlink="http://www.w3.org/1999/xlink" version="1.1" data-diagram-type="DESCRIPTION" style="width:2076px;height:1108px;background:#FFFFFF;" width="2076px" height="1108px" viewBox="0 0 2076 1108" zoomAndPan="magnify" preserveAspectRatio="none" contentStyleType="text/css"><?plantuml 1.2026.8?><defs/><g font-family="sans-serif" lengthAdjust="spacing"><g class="title" data-source-line="1"><text x="901.757" y="24.966" fill="#000" font-size="14" textLength="265.565" font-weight="700">Component Diagram - Auction System</text></g><!--cluster Client--><g class="cluster" data-qualified-name="Client" id="ent0001" data-source-line="6"><path d="M8.5,785.778 L50.38,785.778 A3.75,3.75 0 0 1 52.88,788.278 L59.88,810.846 L283.89,810.846 A2.5,2.5 0 0 1 286.39,813.346 L286.39,1008.278 A2.5,2.5 0 0 1 283.89,1010.778 L8.5,1010.778 A2.5,2.5 0 0 1 6,1008.278 L6,788.278 A2.5,2.5 0 0 1 8.5,785.778" style="stroke:#000;stroke-width:1.5;" fill="none"/><line x1="6" y1="810.846" x2="59.88" y2="810.846" style="stroke:#000;stroke-width:1.5;"/><text x="10" y="802.744" fill="#000" font-size="14" textLength="40.88" font-weight="700">Client</text></g><!--cluster Auction System (Spring Boot 4 / Java)--><g class="cluster" data-qualified-name="Auction System .Spring Boot 4 . Java." id="ent0004" data-source-line="11"><path d="M421.89,107.778 L680.223,107.778 A3.75,3.75 0 0 1 682.723,110.278 L689.723,132.846 L2056.02,132.846 A2.5,2.5 0 0 1 2058.52,135.346 L2058.52,979.278 A2.5,2.5 0 0 1 2056.02,981.778 L421.89,981.778 A2.5,2.5 0 0 1 419.39,979.278 L419.39,110.278 A2.5,2.5 0 0 1 421.89,107.778" style="stroke:#000;stroke-width:1.5;" fill="none"/><line x1="419.39" y1="132.846" x2="689.723" y2="132.846" style="stroke:#000;stroke-width:1.5;"/><text x="423.39" y="124.744" fill="#000" font-size="14" textLength="257.333" font-weight="700">Auction System (Spring Boot 4 / Java)</text></g><!--cluster Cross-cutting--><g class="cluster" data-qualified-name="Auction System .Spring Boot 4 . Java..Cross-cutting" id="ent0005" data-source-line="13"><path d="M445.89,627.778 L540.032,627.778 A3.75,3.75 0 0 1 542.532,630.278 L549.532,652.846 L1077.92,652.846 A2.5,2.5 0 0 1 1080.42,655.346 L1080.42,955.278 A2.5,2.5 0 0 1 1077.92,957.778 L445.89,957.778 A2.5,2.5 0 0 1 443.39,955.278 L443.39,630.278 A2.5,2.5 0 0 1 445.89,627.778" style="stroke:#000;stroke-width:1.5;" fill="none"/><line x1="443.39" y1="652.846" x2="549.532" y2="652.846" style="stroke:#000;stroke-width:1.5;"/><text x="447.39" y="644.744" fill="#000" font-size="14" textLength="93.142" font-weight="700">Cross-cutting</text></g><!--cluster Presentation Layer--><g class="cluster" data-qualified-name="Auction System .Spring Boot 4 . Java..Presentation Layer" id="ent0010" data-source-line="20"><path d="M872.79,378.778 L1006.622,378.778 A3.75,3.75 0 0 1 1009.122,381.278 L1016.122,403.846 L1062.17,403.846 A2.5,2.5 0 0 1 1064.67,406.346 L1064.67,601.278 A2.5,2.5 0 0 1 1062.17,603.778 L872.79,603.778 A2.5,2.5 0 0 1 870.29,601.278 L870.29,381.278 A2.5,2.5 0 0 1 872.79,378.778" style="stroke:#000;stroke-width:1.5;" fill="none"/><line x1="870.29" y1="403.846" x2="1016.122" y2="403.846" style="stroke:#000;stroke-width:1.5;"/><text x="874.29" y="395.744" fill="#000" font-size="14" textLength="132.832" font-weight="700">Presentation Layer</text></g><!--cluster DTO Layer--><g class="cluster" data-qualified-name="Auction System .Spring Boot 4 . Java..DTO Layer" id="ent0013" data-source-line="25"><path d="M1195.69,471.778 L1268.552,471.778 A3.75,3.75 0 0 1 1271.052,474.278 L1278.052,496.846 L1658.8,496.846 A2.5,2.5 0 0 1 1661.3,499.346 L1661.3,591.278 A2.5,2.5 0 0 1 1658.8,593.778 L1195.69,593.778 A2.5,2.5 0 0 1 1193.19,591.278 L1193.19,474.278 A2.5,2.5 0 0 1 1195.69,471.778" style="stroke:#000;stroke-width:1.5;" fill="none"/><line x1="1193.19" y1="496.846" x2="1278.052" y2="496.846" style="stroke:#000;stroke-width:1.5;"/><text x="1197.19" y="488.744" fill="#000" font-size="14" textLength="71.862" font-weight="700">DTO Layer</text></g><!--cluster Service Layer--><g class="cluster" data-qualified-name="Auction System .Spring Boot 4 . Java..Service Layer" id="ent0016" data-source-line="30"><path d="M1147.74,301.778 L1241.294,301.778 A3.75,3.75 0 0 1 1243.794,304.278 L1250.794,326.846 L1667.81,326.846 A2.5,2.5 0 0 1 1670.31,329.346 L1670.31,441.278 A2.5,2.5 0 0 1 1667.81,443.778 L1147.74,443.778 A2.5,2.5 0 0 1 1145.24,441.278 L1145.24,304.278 A2.5,2.5 0 0 1 1147.74,301.778" style="stroke:#000;stroke-width:1.5;" fill="none"/><line x1="1145.24" y1="326.846" x2="1250.794" y2="326.846" style="stroke:#000;stroke-width:1.5;"/><text x="1149.24" y="318.744" fill="#000" font-size="14" textLength="92.554" font-weight="700">Service Layer</text></g><!--cluster Scheduler--><g class="cluster" data-qualified-name="Auction System .Spring Boot 4 . Java..Scheduler" id="ent0019" data-source-line="35"><path d="M851.98,153.778 L922.112,153.778 A3.75,3.75 0 0 1 924.612,156.278 L931.612,178.846 L1082.98,178.846 A2.5,2.5 0 0 1 1085.48,181.346 L1085.48,339.278 A2.5,2.5 0 0 1 1082.98,341.778 L851.98,341.778 A2.5,2.5 0 0 1 849.48,339.278 L849.48,156.278 A2.5,2.5 0 0 1 851.98,153.778" style="stroke:#000;stroke-width:1.5;" fill="none"/><line x1="849.48" y1="178.846" x2="931.612" y2="178.846" style="stroke:#000;stroke-width:1.5;"/><text x="853.48" y="170.744" fill="#000" font-size="14" textLength="69.132" font-weight="700">Scheduler</text></g><!--cluster Repository Layer--><g class="cluster" data-qualified-name="Auction System .Spring Boot 4 . Java..Repository Layer" id="ent0022" data-source-line="40"><path d="M1453.88,155.778 L1572.774,155.778 A3.75,3.75 0 0 1 1575.274,158.278 L1582.274,180.846 L1623.34,180.846 A2.5,2.5 0 0 1 1625.84,183.346 L1625.84,275.278 A2.5,2.5 0 0 1 1623.34,277.778 L1453.88,277.778 A2.5,2.5 0 0 1 1451.38,275.278 L1451.38,158.278 A2.5,2.5 0 0 1 1453.88,155.778" style="stroke:#000;stroke-width:1.5;" fill="none"/><line x1="1451.38" y1="180.846" x2="1582.274" y2="180.846" style="stroke:#000;stroke-width:1.5;"/><text x="1455.38" y="172.744" fill="#000" font-size="14" textLength="117.894" font-weight="700">Repository Layer</text></g><!--cluster Domain Layer--><g class="cluster" data-qualified-name="Auction System .Spring Boot 4 . Java..Domain Layer" id="ent0024" data-source-line="44"><path d="M1839.37,155.778 L1937.152,155.778 A3.75,3.75 0 0 1 1939.652,158.278 L1946.652,180.846 L2032.02,180.846 A2.5,2.5 0 0 1 2034.52,183.346 L2034.52,275.278 A2.5,2.5 0 0 1 2032.02,277.778 L1839.37,277.778 A2.5,2.5 0 0 1 1836.87,275.278 L1836.87,158.278 A2.5,2.5 0 0 1 1839.37,155.778" style="stroke:#000;stroke-width:1.5;" fill="none"/><line x1="1836.87" y1="180.846" x2="1946.652" y2="180.846" style="stroke:#000;stroke-width:1.5;"/><text x="1840.87" y="172.744" fill="#000" font-size="14" textLength="96.782" font-weight="700">Domain Layer</text></g><!--entity Browser--><g class="entity" data-qualified-name="Client.Browser" id="ent0002" data-source-line="7"><rect x="65.97" y="823.708" width="160.456" height="68.136" fill="#F1F1F1" style="stroke:#181818;stroke-width:0.5;" rx="2.5" ry="2.5"/><rect x="206.426" y="828.708" width="15" height="10" fill="#F1F1F1" style="stroke:#181818;stroke-width:0.5;"/><rect x="204.426" y="830.708" width="4" height="2" fill="#F1F1F1" style="stroke:#181818;stroke-width:0.5;"/><rect x="204.426" y="834.708" width="4" height="2" fill="#F1F1F1" style="stroke:#181818;stroke-width:0.5;"/><text x="80.97" y="858.674" fill="#000" font-size="14" textLength="87.906">Web Browser</text><text x="80.97" y="877.742" fill="#000" font-size="14" textLength="120.456">(Thymeleaf pages)</text></g><!--entity ApiClient--><g class="entity" data-qualified-name="Client.ApiClient" id="ent0003" data-source-line="8"><rect x="22" y="926.708" width="248.389" height="68.136" fill="#F1F1F1" style="stroke:#181818;stroke-width:0.5;" rx="2.5" ry="2.5"/><rect x="250.389" y="931.708" width="15" height="10" fill="#F1F1F1" style="stroke:#181818;stroke-width:0.5;"/><rect x="248.389" y="933.708" width="4" height="2" fill="#F1F1F1" style="stroke:#181818;stroke-width:0.5;"/><rect x="248.389" y="937.708" width="4" height="2" fill="#F1F1F1" style="stroke:#181818;stroke-width:0.5;"/><text x="37" y="961.674" fill="#000" font-size="14" textLength="63.476">API Client</text><text x="37" y="980.742" fill="#000" font-size="14" textLength="208.389">(Swagger UI / Bruno / Postman)</text></g><!--entity Sec--><g class="entity" data-qualified-name="Auction System .Spring Boot 4 . Java..Cross-cutting.Sec" id="ent0006" data-source-line="14"><rect x="461.34" y="854.178" width="195.427" height="87.204" fill="#F1F1F1" style="stroke:#181818;stroke-width:0.5;" rx="2.5" ry="2.5"/><rect x="636.767" y="859.178" width="15" height="10" fill="#F1F1F1" style="stroke:#181818;stroke-width:0.5;"/><rect x="634.767" y="861.178" width="4" height="2" fill="#F1F1F1" style="stroke:#181818;stroke-width:0.5;"/><rect x="634.767" y="865.178" width="4" height="2" fill="#F1F1F1" style="stroke:#181818;stroke-width:0.5;"/><text x="476.34" y="889.144" fill="#000" font-size="14" textLength="52.542">Security</text><text x="476.34" y="908.212" fill="#000" font-size="14" textLength="155.427">(SecurityConfig, BCrypt,</text><text x="476.34" y="927.28" fill="#000" font-size="14" textLength="126.476">UserDetailsService)</text></g><!--entity Exc--><g class="entity" data-qualified-name="Auction System .Spring Boot 4 . Java..Cross-cutting.Exc" id="ent0007" data-source-line="15"><rect x="459.39" y="750.708" width="199.333" height="68.136" fill="#F1F1F1" style="stroke:#181818;stroke-width:0.5;" rx="2.5" ry="2.5"/><rect x="638.723" y="755.708" width="15" height="10" fill="#F1F1F1" style="stroke:#181818;stroke-width:0.5;"/><rect x="636.723" y="757.708" width="4" height="2" fill="#F1F1F1" style="stroke:#181818;stroke-width:0.5;"/><rect x="636.723" y="761.708" width="4" height="2" fill="#F1F1F1" style="stroke:#181818;stroke-width:0.5;"/><text x="474.39" y="785.674" fill="#000" font-size="14" textLength="159.333">GlobalExceptionHandler</text><text x="474.39" y="804.742" fill="#000" font-size="14" textLength="105.644">(ErrorResponse)</text></g><!--entity Oas--><g class="entity" data-qualified-name="Auction System .Spring Boot 4 . Java..Cross-cutting.Oas" id="ent0008" data-source-line="16"><rect x="870.54" y="863.708" width="193.873" height="68.136" fill="#F1F1F1" style="stroke:#181818;stroke-width:0.5;" rx="2.5" ry="2.5"/><rect x="1044.413" y="868.708" width="15" height="10" fill="#F1F1F1" style="stroke:#181818;stroke-width:0.5;"/><rect x="1042.413" y="870.708" width="4" height="2" fill="#F1F1F1" style="stroke:#181818;stroke-width:0.5;"/><rect x="1042.413" y="874.708" width="4" height="2" fill="#F1F1F1" style="stroke:#181818;stroke-width:0.5;"/><text x="885.54" y="898.674" fill="#000" font-size="14" textLength="100.268">OpenApiConfig</text><text x="885.54" y="917.742" fill="#000" font-size="14" textLength="153.873">(springdoc Swagger UI)</text></g><!--entity Init--><g class="entity" data-qualified-name="Auction System .Spring Boot 4 . Java..Cross-cutting.Init" id="ent0009" data-source-line="17"><rect x="487.1" y="666.238" width="143.922" height="49.068" fill="#F1F1F1" style="stroke:#181818;stroke-width:0.5;" rx="2.5" ry="2.5"/><rect x="611.022" y="671.238" width="15" height="10" fill="#F1F1F1" style="stroke:#181818;stroke-width:0.5;"/><rect x="609.022" y="673.238" width="4" height="2" fill="#F1F1F1" style="stroke:#181818;stroke-width:0.5;"/><rect x="609.022" y="677.238" width="4" height="2" fill="#F1F1F1" style="stroke:#181818;stroke-width:0.5;"/><text x="502.1" y="701.204" fill="#000" font-size="14" textLength="103.922">AdminInitializer</text></g><!--entity Web--><g class="entity" data-qualified-name="Auction System .Spring Boot 4 . Java..Presentation Layer.Web" id="ent0011" data-source-line="21"><rect x="886.29" y="416.708" width="162.373" height="68.136" fill="#F1F1F1" style="stroke:#181818;stroke-width:0.5;" rx="2.5" ry="2.5"/><rect x="1028.663" y="421.708" width="15" height="10" fill="#F1F1F1" style="stroke:#181818;stroke-width:0.5;"/><rect x="1026.663" y="423.708" width="4" height="2" fill="#F1F1F1" style="stroke:#181818;stroke-width:0.5;"/><rect x="1026.663" y="427.708" width="4" height="2" fill="#F1F1F1" style="stroke:#181818;stroke-width:0.5;"/><text x="901.29" y="451.674" fill="#000" font-size="14" textLength="99.008">PageController</text><text x="901.29" y="470.742" fill="#000" font-size="14" textLength="122.373">(MVC + Thymeleaf)</text></g><!--entity Rest--><g class="entity" data-qualified-name="Auction System .Spring Boot 4 . Java..Presentation Layer.Rest" id="ent0012" data-source-line="22"><rect x="893.24" y="519.708" width="148.486" height="68.136" fill="#F1F1F1" style="stroke:#181818;stroke-width:0.5;" rx="2.5" ry="2.5"/><rect x="1021.726" y="524.708" width="15" height="10" fill="#F1F1F1" style="stroke:#181818;stroke-width:0.5;"/><rect x="1019.726" y="526.708" width="4" height="2" fill="#F1F1F1" style="stroke:#181818;stroke-width:0.5;"/><rect x="1019.726" y="530.708" width="4" height="2" fill="#F1F1F1" style="stroke:#181818;stroke-width:0.5;"/><text x="908.24" y="554.674" fill="#000" font-size="14" textLength="108.486">REST Controllers</text><text x="908.24" y="573.742" fill="#000" font-size="14" textLength="102.256">controller/api/*</text></g><!--entity Dto--><g class="entity" data-qualified-name="Auction System .Spring Boot 4 . Java..DTO Layer.Dto" id="ent0014" data-source-line="26"><rect x="1431.92" y="509.708" width="213.389" height="68.136" fill="#F1F1F1" style="stroke:#181818;stroke-width:0.5;" rx="2.5" ry="2.5"/><rect x="1625.309" y="514.708" width="15" height="10" fill="#F1F1F1" style="stroke:#181818;stroke-width:0.5;"/><rect x="1623.309" y="516.708" width="4" height="2" fill="#F1F1F1" style="stroke:#181818;stroke-width:0.5;"/><rect x="1623.309" y="520.708" width="4" height="2" fill="#F1F1F1" style="stroke:#181818;stroke-width:0.5;"/><text x="1446.92" y="544.674" fill="#000" font-size="14" textLength="28.938">DTO</text><text x="1446.92" y="563.742" fill="#000" font-size="14" textLength="173.389">dto/request, dto/response</text></g><!--entity Map--><g class="entity" data-qualified-name="Auction System .Spring Boot 4 . Java..DTO Layer.Map" id="ent0015" data-source-line="27"><rect x="1209.19" y="509.708" width="104.764" height="68.136" fill="#F1F1F1" style="stroke:#181818;stroke-width:0.5;" rx="2.5" ry="2.5"/><rect x="1293.954" y="514.708" width="15" height="10" fill="#F1F1F1" style="stroke:#181818;stroke-width:0.5;"/><rect x="1291.954" y="516.708" width="4" height="2" fill="#F1F1F1" style="stroke:#181818;stroke-width:0.5;"/><rect x="1291.954" y="520.708" width="4" height="2" fill="#F1F1F1" style="stroke:#181818;stroke-width:0.5;"/><text x="1224.19" y="544.674" fill="#000" font-size="14" textLength="58.156">Mappers</text><text x="1224.19" y="563.742" fill="#000" font-size="14" textLength="64.764">mapper/*</text></g><!--entity Svc--><g class="entity" data-qualified-name="Auction System .Spring Boot 4 . Java..Service Layer.Svc" id="ent0017" data-source-line="31"><rect x="1161.24" y="339.708" width="200.677" height="68.136" fill="#F1F1F1" style="stroke:#181818;stroke-width:0.5;" rx="2.5" ry="2.5"/><rect x="1341.917" y="344.708" width="15" height="10" fill="#F1F1F1" style="stroke:#181818;stroke-width:0.5;"/><rect x="1339.917" y="346.708" width="4" height="2" fill="#F1F1F1" style="stroke:#181818;stroke-width:0.5;"/><rect x="1339.917" y="350.708" width="4" height="2" fill="#F1F1F1" style="stroke:#181818;stroke-width:0.5;"/><text x="1176.24" y="374.674" fill="#000" font-size="14" textLength="160.677">Service interfaces + Impl</text><text x="1176.24" y="393.742" fill="#000" font-size="14" textLength="109.592">(@Transactional)</text></g><!--entity State--><g class="entity" data-qualified-name="Auction System .Spring Boot 4 . Java..Service Layer.State" id="ent0018" data-source-line="32"><rect x="1422.91" y="340.178" width="231.393" height="87.204" fill="#F1F1F1" style="stroke:#181818;stroke-width:0.5;" rx="2.5" ry="2.5"/><rect x="1634.303" y="345.178" width="15" height="10" fill="#F1F1F1" style="stroke:#181818;stroke-width:0.5;"/><rect x="1632.303" y="347.178" width="4" height="2" fill="#F1F1F1" style="stroke:#181818;stroke-width:0.5;"/><rect x="1632.303" y="351.178" width="4" height="2" fill="#F1F1F1" style="stroke:#181818;stroke-width:0.5;"/><text x="1437.91" y="375.144" fill="#000" font-size="14" textLength="119.504">State components</text><text x="1437.91" y="394.212" fill="#000" font-size="14" textLength="191.393">(BiddingState, PaymentState,</text><text x="1437.91" y="413.28" fill="#000" font-size="14" textLength="93.926">StateResolver)</text></g><!--entity BSch--><g class="entity" data-qualified-name="Auction System .Spring Boot 4 . Java..Scheduler.BSch" id="ent0020" data-source-line="36"><rect x="869.16" y="192.238" width="196.645" height="49.068" fill="#F1F1F1" style="stroke:#181818;stroke-width:0.5;" rx="2.5" ry="2.5"/><rect x="1045.805" y="197.238" width="15" height="10" fill="#F1F1F1" style="stroke:#181818;stroke-width:0.5;"/><rect x="1043.805" y="199.238" width="4" height="2" fill="#F1F1F1" style="stroke:#181818;stroke-width:0.5;"/><rect x="1043.805" y="203.238" width="4" height="2" fill="#F1F1F1" style="stroke:#181818;stroke-width:0.5;"/><text x="884.16" y="227.204" fill="#000" font-size="14" textLength="156.645">BiddingExpiryScheduler</text></g><!--entity PSch--><g class="entity" data-qualified-name="Auction System .Spring Boot 4 . Java..Scheduler.PSch" id="ent0021" data-source-line="37"><rect x="865.48" y="276.238" width="203.995" height="49.068" fill="#F1F1F1" style="stroke:#181818;stroke-width:0.5;" rx="2.5" ry="2.5"/><rect x="1049.475" y="281.238" width="15" height="10" fill="#F1F1F1" style="stroke:#181818;stroke-width:0.5;"/><rect x="1047.475" y="283.238" width="4" height="2" fill="#F1F1F1" style="stroke:#181818;stroke-width:0.5;"/><rect x="1047.475" y="287.238" width="4" height="2" fill="#F1F1F1" style="stroke:#181818;stroke-width:0.5;"/><text x="880.48" y="311.204" fill="#000" font-size="14" textLength="163.995">PaymentExpiryScheduler</text></g><!--entity Repo--><g class="entity" data-qualified-name="Auction System .Spring Boot 4 . Java..Repository Layer.Repo" id="ent0023" data-source-line="41"><rect x="1467.38" y="193.708" width="142.452" height="68.136" fill="#F1F1F1" style="stroke:#181818;stroke-width:0.5;" rx="2.5" ry="2.5"/><rect x="1589.832" y="198.708" width="15" height="10" fill="#F1F1F1" style="stroke:#181818;stroke-width:0.5;"/><rect x="1587.832" y="200.708" width="4" height="2" fill="#F1F1F1" style="stroke:#181818;stroke-width:0.5;"/><rect x="1587.832" y="204.708" width="4" height="2" fill="#F1F1F1" style="stroke:#181818;stroke-width:0.5;"/><text x="1482.38" y="228.674" fill="#000" font-size="14" textLength="102.452">Spring Data JPA</text><text x="1482.38" y="247.742" fill="#000" font-size="14" textLength="80.444">repository/*</text></g><!--entity Ent--><g class="entity" data-qualified-name="Auction System .Spring Boot 4 . Java..Domain Layer.Ent" id="ent0025" data-source-line="45"><rect x="1852.87" y="193.708" width="165.65" height="68.136" fill="#F1F1F1" style="stroke:#181818;stroke-width:0.5;" rx="2.5" ry="2.5"/><rect x="1998.52" y="198.708" width="15" height="10" fill="#F1F1F1" style="stroke:#181818;stroke-width:0.5;"/><rect x="1996.52" y="200.708" width="4" height="2" fill="#F1F1F1" style="stroke:#181818;stroke-width:0.5;"/><rect x="1996.52" y="204.708" width="4" height="2" fill="#F1F1F1" style="stroke:#181818;stroke-width:0.5;"/><text x="1867.87" y="228.674" fill="#000" font-size="14" textLength="125.65">Entities and Enums</text><text x="1867.87" y="247.742" fill="#000" font-size="14" textLength="54.6">model/*</text></g><!--entity DB--><g class="entity" data-qualified-name="DB" id="ent0026" data-source-line="49"><path d="M1820.31,1007.678 C1820.31,997.678 1935.695,997.678 1935.695,997.678 C1935.695,997.678 2051.079,997.678 2051.079,1007.678 L2051.079,1073.882 C2051.079,1083.882 1935.695,1083.882 1935.695,1083.882 C1935.695,1083.882 1820.31,1083.882 1820.31,1073.882 L1820.31,1007.678" style="stroke:#181818;stroke-width:0.5;" fill="#F1F1F1"/><path d="M1820.31,1007.678 C1820.31,1017.678 1935.695,1017.678 1935.695,1017.678 C1935.695,1017.678 2051.079,1017.678 2051.079,1007.678" style="stroke:#181818;stroke-width:0.5;" fill="none"/><text x="1830.31" y="1036.644" fill="#000" font-size="14" textLength="76.944">PostgreSQL</text><text x="1830.31" y="1055.712" fill="#000" font-size="14" textLength="135.785">(Neon in production,</text><text x="1830.31" y="1074.78" fill="#000" font-size="14" textLength="210.769">postgres:16 in docker-compose)</text></g><g class="entity" data-qualified-name="GMN45" id="ent0046" data-source-line="71"><path d="M836.72,46.068 L836.72,91.48 L1098.233,91.48 L1098.233,56.068 L1088.233,46.068 L836.72,46.068" style="stroke:#181818;stroke-width:0.5;" fill="#FEFFDD"/><path d="M1088.233,46.068 L1088.233,56.068 L1098.233,56.068 L1088.233,46.068" style="stroke:#181818;stroke-width:1;" fill="#FEFFDD"/><text x="842.72" y="64.965" fill="#000" font-size="13" textLength="240.513">ไม่มีเส้น Presentation -> Repository ตรง ๆ</text><text x="842.72" y="82.671" fill="#000" font-size="13" textLength="186.342">Controller ทุกตัวต้องผ่าน Service</text></g><!--link Browser to Sec--><g class="link" data-entity-1="ent0002" data-entity-2="ent0006" id="lnk27" data-source-line="51" data-link-type="dependency"><path d="M226.9,865.538 C293.87,872.058 384.844,880.913 456.234,887.863" style="stroke:#181818;stroke-width:1;" fill="none" id="Browser-to-Sec"/><polygon points="461.21,888.348,452.64,883.495,456.234,887.863,451.865,891.457,461.21,888.348" fill="#181818" style="stroke:#181818;stroke-width:1;stroke-linejoin:miter;stroke-miterlimit:10;"/><text x="313.89" y="868.915" fill="#000" font-size="13" textLength="78.598">HTTP (HTML)</text></g><!--link ApiClient to Sec--><g class="link" data-entity-1="ent0003" data-entity-2="ent0006" id="lnk28" data-source-line="52" data-link-type="dependency"><path d="M270.75,941.828 C331.72,932.478 399.258,922.126 456.158,913.396" style="stroke:#181818;stroke-width:1;" fill="none" id="ApiClient-to-Sec"/><polygon points="461.1,912.638,451.597,910.049,456.158,913.396,452.811,917.957,461.1,912.638" fill="#181818" style="stroke:#181818;stroke-width:1;stroke-linejoin:miter;stroke-miterlimit:10;"/><text x="303.39" y="917.675" fill="#000" font-size="13" textLength="99.112">HTTP REST JSON</text></g><!--link Sec to Web--><g class="link" data-entity-1="ent0006" data-entity-2="ent0011" id="lnk29" data-source-line="53" data-link-type="dependency"><path d="M644.19,853.928 C649.69,848.728 654.65,843.018 658.72,836.778 C710.99,756.728 642,707.178 688.72,623.778 C730.72,548.808 815.391,503.852 881.461,478.132" style="stroke:#181818;stroke-width:1;" fill="none" id="Sec-to-Web"/><polygon points="886.12,476.318,876.282,475.855,881.461,478.132,879.184,483.31,886.12,476.318" fill="#181818" style="stroke:#181818;stroke-width:1;stroke-linejoin:miter;stroke-miterlimit:10;"/></g><!--link Sec to Rest--><g class="link" data-entity-1="ent0006" data-entity-2="ent0012" id="lnk30" data-source-line="54" data-link-type="dependency"><path d="M633.1,853.838 C641.83,848.228 650.54,842.468 658.72,836.778 C727.14,789.248 756.14,787.968 806.72,721.778 C827.77,694.228 815.35,677.068 836.72,649.778 C855.73,625.508 878.207,607.153 902.397,590.933" style="stroke:#181818;stroke-width:1;" fill="none" id="Sec-to-Rest"/><polygon points="906.55,588.148,896.847,589.838,902.397,590.933,901.303,596.482,906.55,588.148" fill="#181818" style="stroke:#181818;stroke-width:1;stroke-linejoin:miter;stroke-miterlimit:10;"/></g><!--link Sec to Oas--><g class="link" data-entity-1="ent0006" data-entity-2="ent0008" id="lnk31" data-source-line="55" data-link-type="dependency"><path d="M657.15,897.778 C721.6,897.778 800.86,897.778 865.16,897.778" style="stroke:#181818;stroke-width:1;" fill="none" id="Sec-to-Oas"/><polygon points="870.16,897.778,861.16,893.778,865.16,897.778,861.16,901.778,870.16,897.778" fill="#181818" style="stroke:#181818;stroke-width:1;stroke-linejoin:miter;stroke-miterlimit:10;"/></g><!--link Web to Svc--><g class="link" data-entity-1="ent0011" data-entity-2="ent0017" id="lnk32" data-source-line="56" data-link-type="dependency"><path d="M1049.07,429.528 C1083.69,420.408 1119.655,410.923 1156.145,401.303" style="stroke:#181818;stroke-width:1;" fill="none" id="Web-to-Svc"/><polygon points="1160.98,400.028,1151.258,398.454,1156.145,401.303,1153.297,406.19,1160.98,400.028" fill="#181818" style="stroke:#181818;stroke-width:1;stroke-linejoin:miter;stroke-miterlimit:10;"/></g><!--link Rest to Dto--><g class="link" data-entity-1="ent0012" data-entity-2="ent0014" id="lnk33" data-source-line="57" data-link-type="dependency"><path d="M1042.1,576.238 C1071.4,584.088 1105.62,591.898 1137.24,595.778 C1236.35,607.928 1263.09,610.098 1361.91,595.778 C1387.41,592.078 1409.568,586.912 1434.498,579.672" style="stroke:#181818;stroke-width:1;" fill="none" id="Rest-to-Dto"/><polygon points="1439.3,578.278,1429.542,576.947,1434.498,579.672,1431.773,584.629,1439.3,578.278" fill="#181818" style="stroke:#181818;stroke-width:1;stroke-linejoin:miter;stroke-miterlimit:10;"/></g><!--link Rest to Map--><g class="link" data-entity-1="ent0012" data-entity-2="ent0015" id="lnk34" data-source-line="58" data-link-type="dependency"><path d="M1042.19,551.248 C1094.24,549.468 1157.703,547.3 1203.983,545.71" style="stroke:#181818;stroke-width:1;" fill="none" id="Rest-to-Map"/><polygon points="1208.98,545.538,1199.848,541.849,1203.983,545.71,1200.123,549.845,1208.98,545.538" fill="#181818" style="stroke:#181818;stroke-width:1;stroke-linejoin:miter;stroke-miterlimit:10;"/></g><!--link Rest to Svc--><g class="link" data-entity-1="ent0012" data-entity-2="ent0017" id="lnk35" data-source-line="59" data-link-type="dependency"><path d="M1041.98,529.268 C1060.83,521.808 1080.73,512.868 1098.24,502.778 C1144.86,475.898 1188.666,439.754 1220.146,411.554" style="stroke:#181818;stroke-width:1;" fill="none" id="Rest-to-Svc"/><polygon points="1223.87,408.218,1214.497,411.244,1220.146,411.554,1219.835,417.202,1223.87,408.218" fill="#181818" style="stroke:#181818;stroke-width:1;stroke-linejoin:miter;stroke-miterlimit:10;"/></g><!--link Map to Dto--><g class="link" data-entity-1="ent0015" data-entity-2="ent0014" id="lnk36" data-source-line="60" data-link-type="dependency"><path d="M1314.31,543.778 C1347.3,543.778 1386.25,543.778 1426.43,543.778" style="stroke:#181818;stroke-width:1;" fill="none" id="Map-to-Dto"/><polygon points="1431.43,543.778,1422.43,539.778,1426.43,543.778,1422.43,547.778,1431.43,543.778" fill="#181818" style="stroke:#181818;stroke-width:1;stroke-linejoin:miter;stroke-miterlimit:10;"/></g><!--link Svc to State--><g class="link" data-entity-1="ent0017" data-entity-2="ent0018" id="lnk37" data-source-line="61" data-link-type="dependency"><path d="M1362.26,377.398 C1381.94,378.118 1397.733,378.684 1417.863,379.424" style="stroke:#181818;stroke-width:1;" fill="none" id="Svc-to-State"/><polygon points="1422.86,379.608,1414.013,375.28,1417.863,379.424,1413.719,383.275,1422.86,379.608" fill="#181818" style="stroke:#181818;stroke-width:1;stroke-linejoin:miter;stroke-miterlimit:10;"/></g><!--link Svc to Repo--><g class="link" data-entity-1="ent0017" data-entity-2="ent0023" id="lnk38" data-source-line="62" data-link-type="dependency"><path d="M1327.41,339.358 C1371.24,316.088 1424.484,287.833 1468.324,264.553" style="stroke:#181818;stroke-width:1;" fill="none" id="Svc-to-Repo"/><polygon points="1472.74,262.208,1462.915,262.896,1468.324,264.553,1466.667,269.962,1472.74,262.208" fill="#181818" style="stroke:#181818;stroke-width:1;stroke-linejoin:miter;stroke-miterlimit:10;"/></g><!--link BSch to Svc--><g class="link" data-entity-1="ent0020" data-entity-2="ent0017" id="lnk39" data-source-line="63" data-link-type="dependency"><path d="M1057.86,241.738 C1071.66,246.718 1085.54,252.408 1098.24,258.778 C1142.39,280.908 1183.956,311.087 1215.506,336.167" style="stroke:#181818;stroke-width:1;" fill="none" id="BSch-to-Svc"/><polygon points="1219.42,339.278,1214.864,330.546,1215.506,336.167,1209.886,336.809,1219.42,339.278" fill="#181818" style="stroke:#181818;stroke-width:1;stroke-linejoin:miter;stroke-miterlimit:10;"/></g><!--link PSch to Svc--><g class="link" data-entity-1="ent0021" data-entity-2="ent0017" id="lnk40" data-source-line="64" data-link-type="dependency"><path d="M1068.59,325.798 C1098.48,333.268 1126.379,340.236 1156.239,347.696" style="stroke:#181818;stroke-width:1;" fill="none" id="PSch-to-Svc"/><polygon points="1161.09,348.908,1153.328,342.846,1156.239,347.696,1151.389,350.607,1161.09,348.908" fill="#181818" style="stroke:#181818;stroke-width:1;stroke-linejoin:miter;stroke-miterlimit:10;"/></g><!--link Init to Svc--><g class="link" data-entity-1="ent0009" data-entity-2="ent0017" id="lnk41" data-source-line="65" data-link-type="dependency"><path d="M574.52,665.878 C610.23,607.118 709.01,460.318 836.72,400.778 C939.47,352.868 1066.708,352.346 1155.928,359.906" style="stroke:#181818;stroke-width:1;" fill="none" id="Init-to-Svc"/><polygon points="1160.91,360.328,1152.28,355.582,1155.928,359.906,1151.604,363.554,1160.91,360.328" fill="#181818" style="stroke:#181818;stroke-width:1;stroke-linejoin:miter;stroke-miterlimit:10;"/></g><!--link Repo to Ent--><g class="link" data-entity-1="ent0023" data-entity-2="ent0025" id="lnk42" data-source-line="66" data-link-type="dependency"><path d="M1610.24,227.778 C1678.16,227.778 1775.79,227.778 1847.37,227.778" style="stroke:#181818;stroke-width:1;" fill="none" id="Repo-to-Ent"/><polygon points="1852.37,227.778,1843.37,223.778,1847.37,227.778,1843.37,231.778,1852.37,227.778" fill="#181818" style="stroke:#181818;stroke-width:1;stroke-linejoin:miter;stroke-miterlimit:10;"/></g><!--link Repo to DB--><g class="link" data-entity-1="ent0023" data-entity-2="ent0026" id="lnk43" data-source-line="67" data-link-type="dependency"><path d="M1606.49,262.218 C1631.88,278.068 1659.23,298.918 1678.31,323.778 C1845.47,541.688 1909.404,873.167 1927.854,992.247" style="stroke:#181818;stroke-width:1;" fill="none" id="Repo-to-DB"/><polygon points="1928.62,997.188,1931.195,987.682,1927.854,992.247,1923.289,988.906,1928.62,997.188" fill="#181818" style="stroke:#181818;stroke-width:1;stroke-linejoin:miter;stroke-miterlimit:10;"/><text x="1687.31" y="335.995" fill="#000" font-size="13" textLength="102.336">JDBC / Hibernate</text></g><!--link Exc to Rest--><g class="link" data-entity-1="ent0007" data-entity-2="ent0012" id="lnk44" data-source-line="68" data-link-type="dependency"><path d="M626.34,750.328 C637.2,744.548 648.31,738.548 658.72,732.778 C746.72,684.028 842.913,627.474 904.453,590.874" style="stroke:#181818;stroke-width:1;stroke-dasharray:7,7;" fill="none" id="Exc-to-Rest"/><polygon points="908.75,588.318,898.97,589.48,904.453,590.874,903.059,596.356,908.75,588.318" fill="#181818" style="stroke:#181818;stroke-width:1;stroke-linejoin:miter;stroke-miterlimit:10;"/><text x="689.72" y="646.595" fill="#000" font-size="13" textLength="116.129">แปลง exception จาก</text></g><!--link Rest to GMN45--><g class="link" data-entity-1="ent0012" data-entity-2="ent0046" id="lnk47" data-source-line="71" data-link-type="association"><path d="M892.89,552.028 C843.05,546.488 780.76,530.178 747.72,485.278 C670.81,380.748 682.38,305.398 747.72,193.278 C777.36,142.418 836.35,110.658 885.76,91.958" style="stroke:#181818;stroke-width:1;stroke-dasharray:7,7;" fill="none" id="Rest-GMN45"/></g><?plantuml-src RLJDRXit4BxlKmnyibChHeEWXnoAwW-r3JlUU9Ns4FL0xOvamhiaGr9sb2100nHj-W15KRINe2WA5EYX0GgiteQFqY6vkvBbNgGTpZVppR_bjaGOoaf9WSB2YBE5PXNqeB_CBPS2ifMnM2NccWl5lCfSiKBUSh60EIiDRcdorarcL-HrMPMFaXBd5gm4pHTN5WgkCRXD4iNoQxP0s1kMd4psu4q2yE9hdC50ork3UYhs9rUh2ajaSr04DGVV03EjsgFxwGb4Sm9djsonG0tFJ-28G4iXwJ-LnbPCHCk-uX6TlDtYlviex6TA--G6KbfuJ2vEsGqxyE4HuoPeBOtfvKjh2HjZftWop9UQsvMFflaSIZ7dYqCO3FLAsSEfU4wnZz0oNfeCzGtFCGP71j79bwMSiNByAaVbupfceYX3DSPQIts9Xcfi6YD2HQCBXSAd5zW8Qq8IXSnXKvPeSi5CDEaN5HSdWblEIluQTT1wcTHlxoIRQZHKDHRATCPMgBkCKm8GgTMoZ46UVpM4Jw1hNEIahaRuvJYRm0PlfYBlX2Ec-D63WASaxqSncbpiaDFBL1HM7cbykIIJGuX2h53mDB8oOi-PKe6m2XyD4RtUuscwiiFLld9XKSzPZeRIFAbKIJb_CT5C61R6Y9LDEs-QpcHKDzoi1aMmF-15GTq9caD86TNAxuoNfYByKm5aUOEwyUMVxiUPNs6nBBTYRFoENockLvqwBWs9RSS2tV-1qWYwItE9IXfkfLxjLYJkoOXP1gTfVofqX-pQgEJzDigAyTqn6WjBSqWrfM67iLXMlb6omBBnHFhWY5mLn3TZneybxVP2O_RiZ6hw56asoQ_IieWBJRLK4M6UVFgPrz4wNAFkXLxG1ks50HaaINDHeDVxtAyXF87ZoII5_UF9-Tb1qbsDNNqOvjFiucdY7xtIptdx7MQu5VpI-TCMFD1aU6KG_7nsWf_6Jl0mUkXG9CVtC0oj54hiczlPfDk2N-SjKYM3uAlP2QC1vNCw6Wpfr1tp6MhX_TDXWOSFOnQaT-jthlxLrN-u-WV0zZI1gz-x-gEhtoM9a3JbCscjh43Esmrsw-zS_S6jt_lV-b-t_jRLVxdrZwx-1UvSbIQLPj1S_PEhV_TSRlqzkTbS35BzxEgQA0Fc7rV_wJ-ynxy9x-hV0jb7Jz2iR88qKpwy_m00?></g></svg>